<svg xmlns="http://www.w3.org/2000/svg" version="1.1" xmlns:xlink="http://www.w3.org/1999/xlink" xmlns:svgjs="http://svgjs.dev/svgjs" width="1500" height="935" viewBox="0 0 1500 935"><g transform="matrix(1,0,0,1,-0.9090909090909918,0.3785425101214628)"><svg viewBox="0 0 396 247" data-background-color="#111111" preserveAspectRatio="xMidYMid meet" height="935" width="1500" xmlns="http://www.w3.org/2000/svg" xmlns:xlink="http://www.w3.org/1999/xlink"><g id="tight-bounds" transform="matrix(1,0,0,1,0.2400000000000091,-0.09999999999999432)"><svg viewBox="0 0 395.52 247.2" height="247.2" width="395.52"><g><svg></svg></g><g><svg viewBox="0 0 395.52 247.2" height="247.2" width="395.52"><g transform="matrix(1,0,0,1,75.54432,64.410809444187)"><svg viewBox="0 0 244.43135999999998 118.378381111626" height="118.378381111626" width="244.43135999999998"><g><svg viewBox="0 0 244.43135999999998 118.378381111626" height="118.378381111626" width="244.43135999999998"><g><svg viewBox="0 0 244.43135999999998 118.378381111626" height="118.378381111626" width="244.43135999999998"><g><svg viewBox="0 0 244.43135999999998 118.378381111626" height="118.378381111626" width="244.43135999999998"><g id="textblocktransform"><svg viewBox="0 0 244.43135999999998 118.378381111626" height="118.378381111626" width="244.43135999999998" id="textblock"><g><svg viewBox="0 0 244.43135999999998 86.29113004431314" height="86.29113004431314" width="244.43135999999998"><g transform="matrix(1,0,0,1,0,0)"><svg width="244.43135999999998" viewBox="3.98 -39.5 148.74 52.51" height="86.29113004431314" data-palette-color="#e73d38"><path d="M13.67-13.13L13.67 0 3.98 0 3.98-35.16 21.26-35.16Q23.71-35.16 25.98-34.58 28.25-34.01 29.99-32.78 31.74-31.54 32.78-29.59 33.81-27.64 33.81-24.85L33.81-24.85Q33.81-22.68 32.9-20.76 31.98-18.85 30.46-17.35 28.93-15.84 26.95-14.86 24.98-13.87 22.85-13.55L22.85-13.55Q23.8-11.94 24.84-10.5 25.88-9.06 26.94-7.8 28-6.54 29.05-5.48 30.1-4.42 31.05-3.54L31.05-3.54Q33.3-1.49 35.5 0L35.5 0 23.41 0Q21.95-1.39 20.63-3.34L20.63-3.34Q19.51-5 18.37-7.46 17.24-9.91 16.63-13.13L16.63-13.13 13.67-13.13ZM23.97-24.85L23.97-24.85Q23.97-28.39 22.25-30.05 20.53-31.71 17.09-31.71L17.09-31.71 13.67-31.71 13.67-16.46 17.09-16.46Q18.92-16.46 20.23-17.15 21.53-17.85 22.36-19.01 23.19-20.17 23.58-21.68 23.97-23.19 23.97-24.85ZM68.28-14.16L68.28-14.16Q68.28-11.96 67.7-10.03 67.11-8.11 66.07-6.47 65.04-4.83 63.57-3.53 62.11-2.22 60.36-1.32 58.62-0.42 56.63 0.07 54.64 0.56 52.54 0.56L52.54 0.56Q50.44 0.56 48.46 0.07 46.48-0.42 44.74-1.32 42.99-2.22 41.53-3.53 40.06-4.83 39.02-6.47 37.99-8.11 37.4-10.05 36.81-11.99 36.81-14.16L36.81-14.16Q36.81-16.33 37.4-18.27 37.99-20.21 39.02-21.85 40.06-23.49 41.53-24.79 42.99-26.1 44.74-27 46.48-27.91 48.46-28.39 50.44-28.88 52.54-28.88L52.54-28.88Q54.64-28.88 56.63-28.39 58.62-27.91 60.36-27 62.11-26.1 63.57-24.79 65.04-23.49 66.07-21.85 67.11-20.21 67.7-18.27 68.28-16.33 68.28-14.16ZM59.89-14.16L59.89-14.16Q59.89-15.33 59.75-16.64 59.62-17.94 59.3-19.2 58.98-20.46 58.43-21.62 57.88-22.78 57.08-23.65 56.27-24.51 55.15-25.04 54.03-25.56 52.54-25.56L52.54-25.56Q51.12-25.56 50.02-25.02 48.92-24.49 48.11-23.6 47.29-22.71 46.74-21.53 46.19-20.36 45.85-19.1 45.51-17.85 45.36-16.56 45.21-15.28 45.21-14.16L45.21-14.16Q45.21-13.04 45.36-11.76 45.51-10.47 45.85-9.2 46.19-7.93 46.74-6.77 47.29-5.62 48.11-4.72 48.92-3.83 50.02-3.3 51.12-2.76 52.54-2.76L52.54-2.76Q54-2.76 55.12-3.28 56.25-3.81 57.07-4.69 57.88-5.57 58.42-6.71 58.96-7.86 59.29-9.13 59.62-10.4 59.75-11.69 59.89-12.99 59.89-14.16ZM82.2-35.01L82.2-35.01Q82.2-34.08 81.84-33.25 81.49-32.42 80.88-31.81 80.27-31.2 79.45-30.85 78.63-30.49 77.7-30.49L77.7-30.49Q76.78-30.49 75.95-30.85 75.12-31.2 74.51-31.81 73.9-32.42 73.54-33.25 73.19-34.08 73.19-35.01L73.19-35.01Q73.19-35.94 73.54-36.76 73.9-37.57 74.51-38.18 75.12-38.79 75.95-39.15 76.78-39.5 77.7-39.5L77.7-39.5Q78.63-39.5 79.45-39.15 80.27-38.79 80.88-38.18 81.49-37.57 81.84-36.76 82.2-35.94 82.2-35.01ZM81.83-28.2L81.83-8.15Q81.83-5.25 81.1-2.26 80.37 0.73 79.04 3.53 77.7 6.32 75.86 8.78 74.02 11.23 71.8 13.01L71.8 13.01 68.57 11.06Q69.82 9.35 70.75 7.19 71.67 5.03 72.3 2.71 72.92 0.39 73.24-1.97 73.55-4.32 73.55-6.45L73.55-6.45 73.55-28.2 81.83-28.2ZM117.01-28.2L117.01 0 108.76 0 108.76-3.37Q107.29-1.37 105.23-0.4 103.17 0.56 100.7 0.56L100.7 0.56Q97.48 0.56 94.94-0.59 92.4-1.73 90.64-3.72 88.88-5.71 87.96-8.4 87.03-11.08 87.03-14.16L87.03-14.16Q87.03-17.24 87.96-19.92 88.88-22.61 90.64-24.6 92.4-26.59 94.94-27.73 97.48-28.88 100.7-28.88L100.7-28.88Q102.34-28.88 103.81-28.39 105.29-27.91 106.52-27.01 107.76-26.12 108.7-24.87 109.64-23.61 110.17-22.07L110.17-22.07 113.84-28.2 117.01-28.2ZM108.71-14.16L108.71-14.16Q108.71-15.26 108.6-16.48 108.49-17.7 108.22-18.9 107.95-20.09 107.48-21.18 107-22.27 106.25-23.11 105.51-23.95 104.46-24.44 103.41-24.93 102.02-24.93L102.02-24.93Q100.63-24.93 99.6-24.43 98.58-23.93 97.84-23.08 97.11-22.24 96.64-21.14 96.16-20.04 95.89-18.85 95.62-17.65 95.51-16.44 95.4-15.23 95.4-14.16L95.4-14.16Q95.4-13.09 95.51-11.87 95.62-10.64 95.89-9.45 96.16-8.25 96.64-7.15 97.11-6.05 97.84-5.21 98.58-4.37 99.6-3.87 100.63-3.37 102.02-3.37L102.02-3.37Q103.29-3.37 104.28-3.89 105.27-4.42 106.01-5.3 106.76-6.18 107.27-7.3 107.78-8.42 108.1-9.62 108.42-10.82 108.56-12 108.71-13.18 108.71-14.16ZM152.72-16.16L152.72-16.16Q152.72-13.31 152.03-10.21 151.33-7.1 150.09-4.13 148.84-1.15 147.11 1.48 145.38 4.1 143.3 6.01L143.3 6.01 140.2 4.32Q140.86 3.1 141.45 1.59 142.03 0.07 142.51-1.62 142.98-3.32 143.36-5.13 143.74-6.93 144-8.7 144.25-10.47 144.39-12.15 144.52-13.82 144.52-15.26L144.52-15.26Q144.52-16.21 144.45-17.3 144.37-18.38 144.14-19.47 143.91-20.56 143.52-21.56 143.13-22.56 142.48-23.32 141.84-24.07 140.92-24.54 140-25 138.76-25L138.76-25Q137.54-25 136.59-24.45 135.63-23.9 134.9-23.01 134.17-22.12 133.64-20.97 133.12-19.82 132.79-18.62 132.46-17.41 132.31-16.24 132.17-15.06 132.17-14.14L132.17-14.14 132.17 0 123.89 0 123.89-28.2 127.07-28.2 130.85-21.63Q131.53-23.27 132.56-24.61 133.58-25.95 134.88-26.9 136.17-27.86 137.75-28.37 139.32-28.88 141.15-28.88L141.15-28.88Q144.08-28.88 146.25-27.93 148.43-26.98 149.87-25.28 151.31-23.58 152.02-21.25 152.72-18.92 152.72-16.16Z" opacity="1" transform="matrix(1,0,0,1,0,0)" fill="#e73d38" class="wordmark-text-0" data-fill-palette-color="primary" id="text-0"></path></svg></g></svg></g><g transform="matrix(1,0,0,1,0,106.6623948606544)"><svg viewBox="0 0 244.43135999999998 11.715986250971586" height="11.715986250971586" width="244.43135999999998"><g transform="matrix(1,0,0,1,0,0)"><svg width="244.43135999999998" viewBox="3.98 -41.19 1130.66 54.199999999999996" height="11.715986250971586" data-palette-color="#e73d38"><path d="M29.22-4.49L29.22 0 3.98 0 3.98-35.16 29.22-35.16 29.22-30.66 13.67-30.66 13.67-19.8 25.68-19.8 25.68-15.33 13.67-15.33 13.67-4.49 29.22-4.49ZM42.94-32.62L42.94 0 34.69 0 34.69-41.19 37.86-41.19 42.94-32.62ZM56.61-13.38L56.61-13.38Q58.12-13.04 59.64-12.84 61.15-12.65 62.69-12.65L62.69-12.65Q64.3-12.65 65.68-12.95 67.06-13.26 68.07-13.98 69.09-14.7 69.67-15.89 70.26-17.09 70.26-18.87L70.26-18.87Q70.26-20.31 69.87-21.51 69.48-22.71 68.71-23.56 67.94-24.41 66.82-24.89 65.69-25.37 64.2-25.37L64.2-25.37Q62.81-25.37 61.7-24.85 60.59-24.34 59.75-23.47 58.91-22.61 58.31-21.46 57.71-20.31 57.32-19.07 56.93-17.82 56.76-16.55 56.59-15.28 56.59-14.16L56.59-14.16Q56.59-13.96 56.59-13.77 56.59-13.57 56.61-13.38ZM76.95-18.95L76.95-18.95Q76.95-17.21 76.39-15.86 75.83-14.5 74.86-13.48 73.9-12.45 72.63-11.74 71.36-11.04 69.92-10.58 68.48-10.13 66.95-9.94 65.42-9.74 63.98-9.74L63.98-9.74Q62.15-9.74 60.37-10 58.59-10.25 56.86-10.82L56.86-10.82Q57.12-9.2 57.71-7.75 58.3-6.3 59.27-5.21 60.25-4.13 61.68-3.49 63.11-2.86 65.06-2.86L65.06-2.86Q66.35-2.86 67.52-3.25 68.7-3.64 69.67-4.35 70.65-5.05 71.39-6.03 72.14-7.01 72.6-8.2L72.6-8.2 76.17-6.88Q75.36-4.96 73.96-3.55 72.55-2.15 70.78-1.23 69.01-0.32 67.02 0.12 65.03 0.56 63.08 0.56L63.08 0.56Q59.86 0.56 57.12-0.52 54.39-1.61 52.41-3.56 50.43-5.52 49.31-8.23 48.19-10.94 48.19-14.16L48.19-14.16Q48.19-17.38 49.31-20.09 50.43-22.8 52.41-24.76 54.39-26.71 57.12-27.8 59.86-28.88 63.08-28.88L63.08-28.88Q64.64-28.88 66.28-28.66 67.91-28.44 69.45-27.97 70.99-27.49 72.36-26.73 73.73-25.98 74.74-24.87 75.75-23.75 76.35-22.29 76.95-20.83 76.95-18.95ZM107.71-28.2L96.6 0 89.18 0 78.92-28.2 87.18-28.2 94.69-5.74 101.99-28.2 107.71-28.2ZM139.13-28.2L139.13 0 130.87 0 130.87-3.37Q129.41-1.37 127.35-0.4 125.28 0.56 122.82 0.56L122.82 0.56Q119.59 0.56 117.06-0.59 114.52-1.73 112.76-3.72 111-5.71 110.07-8.4 109.15-11.08 109.15-14.16L109.15-14.16Q109.15-17.24 110.07-19.92 111-22.61 112.76-24.6 114.52-26.59 117.06-27.73 119.59-28.88 122.82-28.88L122.82-28.88Q124.45-28.88 125.93-28.39 127.41-27.91 128.64-27.01 129.87-26.12 130.81-24.87 131.75-23.61 132.29-22.07L132.29-22.07 135.95-28.2 139.13-28.2ZM130.82-14.16L130.82-14.16Q130.82-15.26 130.72-16.48 130.61-17.7 130.34-18.9 130.07-20.09 129.59-21.18 129.12-22.27 128.37-23.11 127.63-23.95 126.58-24.44 125.53-24.93 124.14-24.93L124.14-24.93Q122.74-24.93 121.72-24.43 120.69-23.93 119.96-23.08 119.23-22.24 118.75-21.14 118.28-20.04 118.01-18.85 117.74-17.65 117.63-16.44 117.52-15.23 117.52-14.16L117.52-14.16Q117.52-13.09 117.63-11.87 117.74-10.64 118.01-9.45 118.28-8.25 118.75-7.15 119.23-6.05 119.96-5.21 120.69-4.37 121.72-3.87 122.74-3.37 124.14-3.37L124.14-3.37Q125.41-3.37 126.39-3.89 127.38-4.42 128.13-5.3 128.87-6.18 129.38-7.3 129.9-8.42 130.21-9.62 130.53-10.82 130.68-12 130.82-13.18 130.82-14.16ZM156.63-24.93L156.63 0 148.35 0 148.35-24.93 143.22-24.93 143.22-28.2 148.35-28.2 148.35-38.57 156.63-38.57 156.63-28.2 165.17-28.2 165.17-24.93 156.63-24.93ZM174.55-13.38L174.55-13.38Q176.06-13.04 177.57-12.84 179.09-12.65 180.62-12.65L180.62-12.65Q182.24-12.65 183.62-12.95 184.99-13.26 186.01-13.98 187.02-14.7 187.61-15.89 188.19-17.09 188.19-18.87L188.19-18.87Q188.19-20.31 187.8-21.51 187.41-22.71 186.64-23.56 185.87-24.41 184.75-24.89 183.63-25.37 182.14-25.37L182.14-25.37Q180.75-25.37 179.64-24.85 178.53-24.34 177.68-23.47 176.84-22.61 176.24-21.46 175.64-20.31 175.25-19.07 174.86-17.82 174.69-16.55 174.52-15.28 174.52-14.16L174.52-14.16Q174.52-13.96 174.52-13.77 174.52-13.57 174.55-13.38ZM194.88-18.95L194.88-18.95Q194.88-17.21 194.32-15.86 193.76-14.5 192.8-13.48 191.83-12.45 190.56-11.74 189.29-11.04 187.85-10.58 186.41-10.13 184.88-9.94 183.36-9.74 181.92-9.74L181.92-9.74Q180.09-9.74 178.31-10 176.52-10.25 174.79-10.82L174.79-10.82Q175.06-9.2 175.64-7.75 176.23-6.3 177.21-5.21 178.18-4.13 179.61-3.49 181.04-2.86 182.99-2.86L182.99-2.86Q184.29-2.86 185.46-3.25 186.63-3.64 187.61-4.35 188.58-5.05 189.33-6.03 190.07-7.01 190.54-8.2L190.54-8.2 194.1-6.88Q193.3-4.96 191.89-3.55 190.49-2.15 188.72-1.23 186.95-0.32 184.96 0.12 182.97 0.56 181.02 0.56L181.02 0.56Q177.79 0.56 175.06-0.52 172.32-1.61 170.35-3.56 168.37-5.52 167.25-8.23 166.12-10.94 166.12-14.16L166.12-14.16Q166.12-17.38 167.25-20.09 168.37-22.8 170.35-24.76 172.32-26.71 175.06-27.8 177.79-28.88 181.02-28.88L181.02-28.88Q182.58-28.88 184.21-28.66 185.85-28.44 187.39-27.97 188.93-27.49 190.29-26.73 191.66-25.98 192.67-24.87 193.69-23.75 194.28-22.29 194.88-20.83 194.88-18.95ZM236.43-35.16L243.27-35.16 231.89-14.77 231.89 0 222.2 0 222.2-14.23 210.7-35.16 220.59-35.16 228.23-17.48 236.43-35.16ZM273.34-14.16L273.34-14.16Q273.34-11.96 272.76-10.03 272.17-8.11 271.13-6.47 270.09-4.83 268.63-3.53 267.17-2.22 265.42-1.32 263.67-0.42 261.68 0.07 259.69 0.56 257.59 0.56L257.59 0.56Q255.5 0.56 253.52 0.07 251.54-0.42 249.79-1.32 248.05-2.22 246.58-3.53 245.12-4.83 244.08-6.47 243.04-8.11 242.46-10.05 241.87-11.99 241.87-14.16L241.87-14.16Q241.87-16.33 242.46-18.27 243.04-20.21 244.08-21.85 245.12-23.49 246.58-24.79 248.05-26.1 249.79-27 251.54-27.91 253.52-28.39 255.5-28.88 257.59-28.88L257.59-28.88Q259.69-28.88 261.68-28.39 263.67-27.91 265.42-27 267.17-26.1 268.63-24.79 270.09-23.49 271.13-21.85 272.17-20.21 272.76-18.27 273.34-16.33 273.34-14.16ZM264.94-14.16L264.94-14.16Q264.94-15.33 264.81-16.64 264.67-17.94 264.36-19.2 264.04-20.46 263.49-21.62 262.94-22.78 262.14-23.65 261.33-24.51 260.21-25.04 259.08-25.56 257.59-25.56L257.59-25.56Q256.18-25.56 255.08-25.02 253.98-24.49 253.16-23.6 252.35-22.71 251.8-21.53 251.25-20.36 250.91-19.1 250.56-17.85 250.42-16.56 250.27-15.28 250.27-14.16L250.27-14.16Q250.27-13.04 250.42-11.76 250.56-10.47 250.91-9.2 251.25-7.93 251.8-6.77 252.35-5.62 253.16-4.72 253.98-3.83 255.08-3.3 256.18-2.76 257.59-2.76L257.59-2.76Q259.06-2.76 260.18-3.28 261.31-3.81 262.12-4.69 262.94-5.57 263.48-6.71 264.02-7.86 264.35-9.13 264.67-10.4 264.81-11.69 264.94-12.99 264.94-14.16ZM277.1-12.06L277.1-12.06Q277.1-13.99 277.43-16.06 277.76-18.14 278.38-20.21 279-22.29 279.88-24.32 280.76-26.34 281.86-28.2L281.86-28.2 287.89-28.2Q287.28-26.37 286.8-24.38 286.33-22.39 286-20.4 285.67-18.41 285.49-16.5 285.3-14.6 285.3-12.96L285.3-12.96Q285.3-12.01 285.39-10.93 285.47-9.84 285.69-8.75 285.91-7.67 286.32-6.67 286.72-5.66 287.35-4.9 287.99-4.13 288.9-3.67 289.82-3.22 291.06-3.22L291.06-3.22Q292.28-3.22 293.25-3.77 294.21-4.32 294.95-5.21 295.68-6.1 296.19-7.25 296.7-8.4 297.03-9.61 297.36-10.82 297.52-11.98 297.68-13.13 297.68-14.06L297.68-14.06 297.68-28.2 305.93-28.2 305.93 0 302.76 0 298.97-6.57Q298.27-4.93 297.25-3.6 296.24-2.27 294.95-1.32 293.65-0.37 292.08 0.15 290.5 0.66 288.67 0.66L288.67 0.66Q285.74 0.66 283.57-0.29 281.4-1.25 279.96-2.93 278.52-4.61 277.81-6.95 277.1-9.28 277.1-12.06ZM336.79-25.71L336.79-25.71 332.15-18.02Q331.86-18.99 331.39-20.21 330.93-21.44 330.25-22.5 329.56-23.56 328.61-24.28 327.66-25 326.41-25L326.41-25Q325.27-25 324.42-24.41 323.58-23.83 322.99-22.89 322.41-21.95 322.03-20.76 321.65-19.58 321.44-18.37 321.24-17.16 321.16-16.05 321.09-14.94 321.09-14.14L321.09-14.14 321.09 0 312.81 0 312.81-28.2 315.99-28.2 319.33-21.63Q320.02-23.22 320.9-24.55 321.77-25.88 322.92-26.84 324.07-27.81 325.52-28.34 326.97-28.88 328.81-28.88L328.81-28.88Q329.76-28.88 330.93-28.72 332.1-28.56 333.22-28.19 334.35-27.81 335.3-27.2 336.25-26.59 336.79-25.71ZM391.62-17.63L391.62-17.63Q391.62-13.38 390.15-9.97 388.69-6.57 386.1-4.2 383.51-1.83 379.97-0.56 376.43 0.71 372.31 0.71L372.31 0.71Q368.18 0.71 364.64-0.56 361.1-1.83 358.51-4.2 355.92-6.57 354.46-9.97 352.99-13.38 352.99-17.63L352.99-17.63Q352.99-21.95 354.45-25.35 355.9-28.76 358.48-31.12 361.05-33.47 364.59-34.73 368.13-35.99 372.31-35.99L372.31-35.99Q376.48-35.99 380.02-34.73 383.56-33.47 386.14-31.12 388.71-28.76 390.17-25.35 391.62-21.95 391.62-17.63ZM381.75-17.63L381.75-17.63Q381.75-19.24 381.61-20.92 381.46-22.61 381.07-24.19 380.68-25.78 380.01-27.17 379.34-28.56 378.29-29.6 377.24-30.64 375.76-31.24 374.28-31.84 372.31-31.84L372.31-31.84Q370.3-31.84 368.82-31.24 367.33-30.64 366.28-29.61 365.23-28.59 364.57-27.2 363.91-25.81 363.53-24.23 363.15-22.66 363-20.96 362.86-19.26 362.86-17.63L362.86-17.63Q362.86-16.02 363-14.33 363.15-12.65 363.54-11.07 363.93-9.5 364.6-8.11 365.28-6.71 366.32-5.68 367.37-4.64 368.85-4.03 370.33-3.42 372.31-3.42L372.31-3.42Q374.24-3.42 375.68-4.04 377.12-4.66 378.17-5.73 379.22-6.79 379.91-8.19 380.61-9.59 381.01-11.17 381.41-12.74 381.58-14.4 381.75-16.06 381.75-17.63ZM425.58-16.16L425.58-16.16Q425.58-13.31 424.88-10.21 424.18-7.1 422.94-4.13 421.69-1.15 419.96 1.48 418.23 4.1 416.15 6.01L416.15 6.01 413.05 4.32Q413.71 3.1 414.3 1.59 414.88 0.07 415.36-1.62 415.83-3.32 416.21-5.13 416.59-6.93 416.85-8.7 417.1-10.47 417.24-12.15 417.37-13.82 417.37-15.26L417.37-15.26Q417.37-16.21 417.3-17.3 417.23-18.38 416.99-19.47 416.76-20.56 416.37-21.56 415.98-22.56 415.33-23.32 414.69-24.07 413.77-24.54 412.86-25 411.61-25L411.61-25Q410.39-25 409.44-24.45 408.49-23.9 407.75-23.01 407.02-22.12 406.5-20.97 405.97-19.82 405.64-18.62 405.31-17.41 405.17-16.24 405.02-15.06 405.02-14.14L405.02-14.14 405.02 0 396.74 0 396.74-28.2 399.92-28.2 403.7-21.63Q404.38-23.27 405.41-24.61 406.43-25.95 407.73-26.9 409.02-27.86 410.6-28.37 412.17-28.88 414-28.88L414-28.88Q416.93-28.88 419.11-27.93 421.28-26.98 422.72-25.28 424.16-23.58 424.87-21.25 425.58-18.92 425.58-16.16ZM439.27-32.62L439.27 0 431.02 0 431.02-41.19 434.19-41.19 439.27-32.62ZM454.82-35.01L454.82-35.01Q454.82-34.08 454.46-33.25 454.11-32.42 453.5-31.81 452.89-31.2 452.06-30.85 451.23-30.49 450.3-30.49L450.3-30.49Q449.37-30.49 448.56-30.85 447.74-31.2 447.13-31.81 446.52-32.42 446.16-33.25 445.81-34.08 445.81-35.01L445.81-35.01Q445.81-35.94 446.16-36.76 446.52-37.57 447.13-38.18 447.74-38.79 448.56-39.15 449.37-39.5 450.3-39.5L450.3-39.5Q451.23-39.5 452.06-39.15 452.89-38.79 453.5-38.18 454.11-37.57 454.46-36.76 454.82-35.94 454.82-35.01ZM454.45-28.17L454.45 0 446.18 0 446.18-28.17 454.45-28.17ZM490.19-16.16L490.19-16.16Q490.19-13.31 489.5-10.21 488.8-7.1 487.56-4.13 486.31-1.15 484.58 1.48 482.84 4.1 480.77 6.01L480.77 6.01 477.67 4.32Q478.33 3.1 478.91 1.59 479.5 0.07 479.97-1.62 480.45-3.32 480.83-5.13 481.21-6.93 481.46-8.7 481.72-10.47 481.85-12.15 481.99-13.82 481.99-15.26L481.99-15.26Q481.99-16.21 481.92-17.3 481.84-18.38 481.61-19.47 481.38-20.56 480.99-21.56 480.6-22.56 479.95-23.32 479.3-24.07 478.39-24.54 477.47-25 476.23-25L476.23-25Q475.01-25 474.05-24.45 473.1-23.9 472.37-23.01 471.64-22.12 471.11-20.97 470.59-19.82 470.26-18.62 469.93-17.41 469.78-16.24 469.64-15.06 469.64-14.14L469.64-14.14 469.64 0 461.36 0 461.36-28.2 464.53-28.2 468.32-21.63Q469-23.27 470.03-24.61 471.05-25.95 472.35-26.9 473.64-27.86 475.21-28.37 476.79-28.88 478.62-28.88L478.62-28.88Q481.55-28.88 483.72-27.93 485.9-26.98 487.34-25.28 488.78-23.58 489.48-21.25 490.19-18.92 490.19-16.16ZM502.42-13.38L502.42-13.38Q503.93-13.04 505.45-12.84 506.96-12.65 508.5-12.65L508.5-12.65Q510.11-12.65 511.49-12.95 512.87-13.26 513.88-13.98 514.9-14.7 515.48-15.89 516.07-17.09 516.07-18.87L516.07-18.87Q516.07-20.31 515.68-21.51 515.29-22.71 514.52-23.56 513.75-24.41 512.63-24.89 511.5-25.37 510.01-25.37L510.01-25.37Q508.62-25.37 507.51-24.85 506.4-24.34 505.56-23.47 504.72-22.61 504.12-21.46 503.52-20.31 503.13-19.07 502.74-17.82 502.57-16.55 502.4-15.28 502.4-14.16L502.4-14.16Q502.4-13.96 502.4-13.77 502.4-13.57 502.42-13.38ZM522.76-18.95L522.76-18.95Q522.76-17.21 522.2-15.86 521.63-14.5 520.67-13.48 519.71-12.45 518.44-11.74 517.17-11.04 515.73-10.58 514.29-10.13 512.76-9.94 511.23-9.74 509.79-9.74L509.79-9.74Q507.96-9.74 506.18-10 504.4-10.25 502.66-10.82L502.66-10.82Q502.93-9.2 503.52-7.75 504.11-6.3 505.08-5.21 506.06-4.13 507.49-3.49 508.91-2.86 510.87-2.86L510.87-2.86Q512.16-2.86 513.33-3.25 514.51-3.64 515.48-4.35 516.46-5.05 517.2-6.03 517.95-7.01 518.41-8.2L518.41-8.2 521.98-6.88Q521.17-4.96 519.77-3.55 518.36-2.15 516.59-1.23 514.82-0.32 512.83 0.12 510.84 0.56 508.89 0.56L508.89 0.56Q505.67 0.56 502.93-0.52 500.2-1.61 498.22-3.56 496.24-5.52 495.12-8.23 494-10.94 494-14.16L494-14.16Q494-17.38 495.12-20.09 496.24-22.8 498.22-24.76 500.2-26.71 502.93-27.8 505.67-28.88 508.89-28.88L508.89-28.88Q510.45-28.88 512.09-28.66 513.72-28.44 515.26-27.97 516.8-27.49 518.17-26.73 519.54-25.98 520.55-24.87 521.56-23.75 522.16-22.29 522.76-20.83 522.76-18.95ZM552.29-13.13L552.29 0 542.6 0 542.6-35.16 561.6-35.16Q564.06-35.16 566.32-34.5 568.58-33.84 570.31-32.51 572.04-31.18 573.08-29.16 574.12-27.15 574.12-24.44L574.12-24.44Q574.12-22.73 573.63-21.23 573.14-19.73 572.28-18.48 571.41-17.24 570.24-16.24 569.07-15.23 567.67-14.55 566.28-13.87 564.73-13.5 563.18-13.13 561.6-13.13L561.6-13.13 552.29-13.13ZM564.31-24.44L564.31-24.44Q564.31-27.83 562.58-29.77 560.86-31.71 557.4-31.71L557.4-31.71 552.29-31.71 552.29-16.46 557.4-16.46Q559.25-16.46 560.56-17.05 561.86-17.65 562.69-18.73 563.52-19.8 563.91-21.25 564.31-22.71 564.31-24.44ZM602.32-25.71L602.32-25.71 597.68-18.02Q597.38-18.99 596.92-20.21 596.46-21.44 595.77-22.5 595.09-23.56 594.14-24.28 593.18-25 591.94-25L591.94-25Q590.79-25 589.95-24.41 589.11-23.83 588.52-22.89 587.94-21.95 587.56-20.76 587.18-19.58 586.97-18.37 586.76-17.16 586.69-16.05 586.62-14.94 586.62-14.14L586.62-14.14 586.62 0 578.34 0 578.34-28.2 581.51-28.2 584.86-21.63Q585.54-23.22 586.42-24.55 587.3-25.88 588.45-26.84 589.6-27.81 591.05-28.34 592.5-28.88 594.33-28.88L594.33-28.88Q595.28-28.88 596.46-28.72 597.63-28.56 598.75-28.19 599.87-27.81 600.83-27.2 601.78-26.59 602.32-25.71ZM611.81-13.38L611.81-13.38Q613.32-13.04 614.84-12.84 616.35-12.65 617.89-12.65L617.89-12.65Q619.5-12.65 620.88-12.95 622.26-13.26 623.27-13.98 624.29-14.7 624.87-15.89 625.46-17.09 625.46-18.87L625.46-18.87Q625.46-20.31 625.07-21.51 624.68-22.71 623.91-23.56 623.14-24.41 622.02-24.89 620.89-25.37 619.4-25.37L619.4-25.37Q618.01-25.37 616.9-24.85 615.79-24.34 614.95-23.47 614.11-22.61 613.51-21.46 612.91-20.31 612.52-19.07 612.13-17.82 611.96-16.55 611.79-15.28 611.79-14.16L611.79-14.16Q611.79-13.96 611.79-13.77 611.79-13.57 611.81-13.38ZM632.15-18.95L632.15-18.95Q632.15-17.21 631.59-15.86 631.02-14.5 630.06-13.48 629.1-12.45 627.83-11.74 626.56-11.04 625.12-10.58 623.68-10.13 622.15-9.94 620.62-9.74 619.18-9.74L619.18-9.74Q617.35-9.74 615.57-10 613.79-10.25 612.05-10.82L612.05-10.82Q612.32-9.2 612.91-7.75 613.49-6.3 614.47-5.21 615.45-4.13 616.88-3.49 618.3-2.86 620.26-2.86L620.26-2.86Q621.55-2.86 622.72-3.25 623.9-3.64 624.87-4.35 625.85-5.05 626.59-6.03 627.34-7.01 627.8-8.2L627.8-8.2 631.37-6.88Q630.56-4.96 629.16-3.55 627.75-2.15 625.98-1.23 624.21-0.32 622.22 0.12 620.23 0.56 618.28 0.56L618.28 0.56Q615.06 0.56 612.32-0.52 609.59-1.61 607.61-3.56 605.63-5.52 604.51-8.23 603.39-10.94 603.39-14.16L603.39-14.16Q603.39-17.38 604.51-20.09 605.63-22.8 607.61-24.76 609.59-26.71 612.32-27.8 615.06-28.88 618.28-28.88L618.28-28.88Q619.84-28.88 621.48-28.66 623.11-28.44 624.65-27.97 626.19-27.49 627.56-26.73 628.92-25.98 629.94-24.87 630.95-23.75 631.55-22.29 632.15-20.83 632.15-18.95ZM661.56-9.01L661.56-9.01Q661.56-7.15 661.03-5.71 660.49-4.27 659.56-3.21 658.63-2.15 657.36-1.43 656.09-0.71 654.64-0.27 653.19 0.17 651.6 0.37 650.02 0.56 648.45 0.56L648.45 0.56Q646.35 0.56 644.74 0.29 643.13 0.02 641.67-0.57 640.2-1.17 638.75-2.12 637.3-3.08 635.51-4.44L635.51-4.44 640.32-8.37Q640.98-7.13 642.07-6.12 643.16-5.1 644.33-4.37 645.5-3.64 646.6-3.25 647.7-2.86 648.38-2.86L648.38-2.86Q648.94-2.86 649.65-2.89 650.36-2.93 651.09-3.04 651.82-3.15 652.53-3.37 653.24-3.59 653.79-3.97 654.34-4.35 654.67-4.92 655-5.49 655-6.3L655-6.3Q655-7.13 654.57-7.75 654.14-8.37 653.46-8.84 652.77-9.3 651.9-9.62 651.02-9.94 650.13-10.18 649.23-10.42 648.4-10.61 647.57-10.79 646.96-10.96L646.96-10.96Q645.84-11.28 644.6-11.61 643.35-11.94 642.13-12.37 640.91-12.79 639.8-13.38 638.69-13.96 637.85-14.78 637-15.6 636.5-16.71 636-17.82 636-19.31L636-19.31Q636-22.05 637.09-23.89 638.17-25.73 639.96-26.84 641.74-27.95 644.01-28.42 646.28-28.88 648.62-28.88L648.62-28.88Q650.24-28.88 652.02-28.55 653.8-28.22 655.48-27.58 657.17-26.93 658.63-26 660.1-25.07 661.08-23.88L661.08-23.88 656.27-19.92Q655.73-21.39 654.86-22.44 654-23.49 652.98-24.16 651.97-24.83 650.91-25.15 649.84-25.46 648.94-25.46L648.94-25.46Q648.06-25.46 646.96-25.39 645.87-25.32 644.9-24.98 643.94-24.63 643.27-23.94 642.59-23.24 642.59-22.02L642.59-22.02Q642.59-21.14 643-20.52 643.4-19.9 644.06-19.45 644.72-18.99 645.56-18.69 646.4-18.38 647.28-18.15 648.16-17.92 648.99-17.75 649.82-17.58 650.48-17.38L650.48-17.38Q651.6-17.07 652.86-16.74 654.12-16.41 655.34-15.98 656.56-15.55 657.69-14.98 658.83-14.4 659.68-13.57 660.54-12.74 661.05-11.63 661.56-10.52 661.56-9.01ZM673.55-13.38L673.55-13.38Q675.06-13.04 676.58-12.84 678.09-12.65 679.63-12.65L679.63-12.65Q681.24-12.65 682.62-12.95 684-13.26 685.01-13.98 686.02-14.7 686.61-15.89 687.2-17.09 687.2-18.87L687.2-18.87Q687.2-20.31 686.81-21.51 686.41-22.71 685.65-23.56 684.88-24.41 683.75-24.89 682.63-25.37 681.14-25.37L681.14-25.37Q679.75-25.37 678.64-24.85 677.53-24.34 676.69-23.47 675.84-22.61 675.25-21.46 674.65-20.31 674.26-19.07 673.87-17.82 673.69-16.55 673.52-15.28 673.52-14.16L673.52-14.16Q673.52-13.96 673.52-13.77 673.52-13.57 673.55-13.38ZM693.89-18.95L693.89-18.95Q693.89-17.21 693.32-15.86 692.76-14.5 691.8-13.48 690.83-12.45 689.56-11.74 688.29-11.04 686.85-10.58 685.41-10.13 683.89-9.94 682.36-9.74 680.92-9.74L680.92-9.74Q679.09-9.74 677.31-10 675.53-10.25 673.79-10.82L673.79-10.82Q674.06-9.2 674.65-7.75 675.23-6.3 676.21-5.21 677.19-4.13 678.61-3.49 680.04-2.86 682-2.86L682-2.86Q683.29-2.86 684.46-3.25 685.63-3.64 686.61-4.35 687.59-5.05 688.33-6.03 689.08-7.01 689.54-8.2L689.54-8.2 693.1-6.88Q692.3-4.96 690.89-3.55 689.49-2.15 687.72-1.23 685.95-0.32 683.96 0.12 681.97 0.56 680.02 0.56L680.02 0.56Q676.8 0.56 674.06-0.52 671.33-1.61 669.35-3.56 667.37-5.52 666.25-8.23 665.13-10.94 665.13-14.16L665.13-14.16Q665.13-17.38 666.25-20.09 667.37-22.8 669.35-24.76 671.33-26.71 674.06-27.8 676.8-28.88 680.02-28.88L680.02-28.88Q681.58-28.88 683.22-28.66 684.85-28.44 686.39-27.97 687.93-27.49 689.3-26.73 690.66-25.98 691.68-24.87 692.69-23.75 693.29-22.29 693.89-20.83 693.89-18.95ZM727.87-16.16L727.87-16.16Q727.87-13.31 727.17-10.21 726.48-7.1 725.23-4.13 723.99-1.15 722.25 1.48 720.52 4.1 718.44 6.01L718.44 6.01 715.34 4.32Q716 3.1 716.59 1.59 717.17 0.07 717.65-1.62 718.13-3.32 718.5-5.13 718.88-6.93 719.14-8.7 719.4-10.47 719.53-12.15 719.66-13.82 719.66-15.26L719.66-15.26Q719.66-16.21 719.59-17.3 719.52-18.38 719.29-19.47 719.05-20.56 718.66-21.56 718.27-22.56 717.63-23.32 716.98-24.07 716.06-24.54 715.15-25 713.9-25L713.9-25Q712.68-25 711.73-24.45 710.78-23.9 710.04-23.01 709.31-22.12 708.79-20.97 708.26-19.82 707.93-18.62 707.6-17.41 707.46-16.24 707.31-15.06 707.31-14.14L707.31-14.14 707.31 0 699.03 0 699.03-28.2 702.21-28.2 705.99-21.63Q706.68-23.27 707.7-24.61 708.73-25.95 710.02-26.9 711.31-27.86 712.89-28.37 714.46-28.88 716.29-28.88L716.29-28.88Q719.22-28.88 721.4-27.93 723.57-26.98 725.01-25.28 726.45-23.58 727.16-21.25 727.87-18.92 727.87-16.16ZM740.1-13.38L740.1-13.38Q741.61-13.04 743.12-12.84 744.64-12.65 746.18-12.65L746.18-12.65Q747.79-12.65 749.17-12.95 750.55-13.26 751.56-13.98 752.57-14.7 753.16-15.89 753.74-17.09 753.74-18.87L753.74-18.87Q753.74-20.31 753.35-21.51 752.96-22.71 752.19-23.56 751.42-24.41 750.3-24.89 749.18-25.37 747.69-25.37L747.69-25.37Q746.3-25.37 745.19-24.85 744.08-24.34 743.23-23.47 742.39-22.61 741.79-21.46 741.19-20.31 740.8-19.07 740.41-17.82 740.24-16.55 740.07-15.28 740.07-14.16L740.07-14.16Q740.07-13.96 740.07-13.77 740.07-13.57 740.1-13.38ZM760.43-18.95L760.43-18.95Q760.43-17.21 759.87-15.86 759.31-14.5 758.35-13.48 757.38-12.45 756.11-11.74 754.84-11.04 753.4-10.58 751.96-10.13 750.44-9.94 748.91-9.74 747.47-9.74L747.47-9.74Q745.64-9.74 743.86-10 742.07-10.25 740.34-10.82L740.34-10.82Q740.61-9.2 741.19-7.75 741.78-6.3 742.76-5.21 743.73-4.13 745.16-3.49 746.59-2.86 748.54-2.86L748.54-2.86Q749.84-2.86 751.01-3.25 752.18-3.64 753.16-4.35 754.13-5.05 754.88-6.03 755.62-7.01 756.09-8.2L756.09-8.2 759.65-6.88Q758.85-4.96 757.44-3.55 756.04-2.15 754.27-1.23 752.5-0.32 750.51 0.12 748.52 0.56 746.57 0.56L746.57 0.56Q743.34 0.56 740.61-0.52 737.87-1.61 735.9-3.56 733.92-5.52 732.8-8.23 731.67-10.94 731.67-14.16L731.67-14.16Q731.67-17.38 732.8-20.09 733.92-22.8 735.9-24.76 737.87-26.71 740.61-27.8 743.34-28.88 746.57-28.88L746.57-28.88Q748.13-28.88 749.76-28.66 751.4-28.44 752.94-27.97 754.48-27.49 755.84-26.73 757.21-25.98 758.22-24.87 759.24-23.75 759.83-22.29 760.43-20.83 760.43-18.95ZM773.59-3.66L773.59-3.66Q773.59-2.54 773.3-1.37 773-0.2 772.48 0.92 771.95 2.03 771.25 3.02 770.54 4 769.71 4.76L769.71 4.76 766.19 2.91Q766.7 2.51 767.23 1.88 767.75 1.25 767.85 0.61L767.85 0.61Q767.14 0.39 766.57-0.02 766-0.44 765.58-1.01 765.17-1.59 764.93-2.26 764.7-2.93 764.7-3.66L764.7-3.66Q764.7-4.57 765.06-5.38 765.41-6.2 766.01-6.8 766.61-7.4 767.41-7.75 768.22-8.11 769.15-8.11L769.15-8.11Q770.07-8.11 770.88-7.75 771.69-7.4 772.3-6.8 772.91-6.2 773.25-5.38 773.59-4.57 773.59-3.66ZM804.08-13.13L804.08 0 794.39 0 794.39-35.16 813.38-35.16Q815.85-35.16 818.1-34.5 820.36-33.84 822.1-32.51 823.83-31.18 824.87-29.16 825.9-27.15 825.9-24.44L825.9-24.44Q825.9-22.73 825.42-21.23 824.93-19.73 824.06-18.48 823.19-17.24 822.02-16.24 820.85-15.23 819.46-14.55 818.07-13.87 816.52-13.5 814.97-13.13 813.38-13.13L813.38-13.13 804.08-13.13ZM816.09-24.44L816.09-24.44Q816.09-27.83 814.37-29.77 812.65-31.71 809.18-31.71L809.18-31.71 804.08-31.71 804.08-16.46 809.18-16.46Q811.04-16.46 812.34-17.05 813.65-17.65 814.48-18.73 815.31-19.8 815.7-21.25 816.09-22.71 816.09-24.44ZM838.82-35.01L838.82-35.01Q838.82-34.08 838.46-33.25 838.11-32.42 837.5-31.81 836.89-31.2 836.06-30.85 835.23-30.49 834.3-30.49L834.3-30.49Q833.37-30.49 832.55-30.85 831.74-31.2 831.13-31.81 830.52-32.42 830.16-33.25 829.81-34.08 829.81-35.01L829.81-35.01Q829.81-35.94 830.16-36.76 830.52-37.57 831.13-38.18 831.74-38.79 832.55-39.15 833.37-39.5 834.3-39.5L834.3-39.5Q835.23-39.5 836.06-39.15 836.89-38.79 837.5-38.18 838.11-37.57 838.46-36.76 838.82-35.94 838.82-35.01ZM838.45-28.17L838.45 0 830.17 0 830.17-28.17 838.45-28.17ZM859.44-15.55L870.28 0 862.03 0 855.12-9.89 848.07 0 842.35 0 852.97-12.99 842.35-28.2 850.61-28.2 857.3-18.63 864.57-28.2 870.28-28.2 859.44-15.55ZM879.71-13.38L879.71-13.38Q881.22-13.04 882.73-12.84 884.25-12.65 885.78-12.65L885.78-12.65Q887.4-12.65 888.77-12.95 890.15-13.26 891.17-13.98 892.18-14.7 892.77-15.89 893.35-17.09 893.35-18.87L893.35-18.87Q893.35-20.31 892.96-21.51 892.57-22.71 891.8-23.56 891.03-24.41 889.91-24.89 888.79-25.37 887.3-25.37L887.3-25.37Q885.91-25.37 884.8-24.85 883.68-24.34 882.84-23.47 882-22.61 881.4-21.46 880.8-20.31 880.41-19.07 880.02-17.82 879.85-16.55 879.68-15.28 879.68-14.16L879.68-14.16Q879.68-13.96 879.68-13.77 879.68-13.57 879.71-13.38ZM900.04-18.95L900.04-18.95Q900.04-17.21 899.48-15.86 898.92-14.5 897.95-13.48 896.99-12.45 895.72-11.74 894.45-11.04 893.01-10.58 891.57-10.13 890.04-9.94 888.52-9.74 887.08-9.74L887.08-9.74Q885.25-9.74 883.46-10 881.68-10.25 879.95-10.82L879.95-10.82Q880.22-9.2 880.8-7.75 881.39-6.3 882.37-5.21 883.34-4.13 884.77-3.49 886.2-2.86 888.15-2.86L888.15-2.86Q889.45-2.86 890.62-3.25 891.79-3.64 892.77-4.35 893.74-5.05 894.49-6.03 895.23-7.01 895.7-8.2L895.7-8.2 899.26-6.88Q898.46-4.96 897.05-3.55 895.65-2.15 893.88-1.23 892.11-0.32 890.12 0.12 888.13 0.56 886.17 0.56L886.17 0.56Q882.95 0.56 880.22-0.52 877.48-1.61 875.51-3.56 873.53-5.52 872.41-8.23 871.28-10.94 871.28-14.16L871.28-14.16Q871.28-17.38 872.41-20.09 873.53-22.8 875.51-24.76 877.48-26.71 880.22-27.8 882.95-28.88 886.17-28.88L886.17-28.88Q887.74-28.88 889.37-28.66 891.01-28.44 892.55-27.97 894.09-27.49 895.45-26.73 896.82-25.98 897.83-24.87 898.85-23.75 899.44-22.29 900.04-20.83 900.04-18.95ZM913.44-32.62L913.44 0 905.19 0 905.19-41.19 908.36-41.19 913.44-32.62ZM967.39-9.55L967.39-9.55Q967.39-8.06 966.9-6.76 966.42-5.47 965.56-4.41 964.71-3.34 963.57-2.51 962.44-1.68 961.13-1.12 959.82-0.56 958.43-0.28 957.04 0 955.7 0L955.7 0 935.02 0 935.02-35.16 953.92-35.16Q955.16-35.16 956.53-34.97 957.9-34.79 959.2-34.4 960.51-34.01 961.69-33.37 962.88-32.74 963.77-31.82 964.66-30.91 965.18-29.71 965.71-28.52 965.71-26.98L965.71-26.98Q965.71-25.51 965.12-24.32 964.54-23.12 963.55-22.18 962.56-21.24 961.28-20.52 960-19.8 958.58-19.26L958.58-19.26Q960.36-18.77 961.96-17.97 963.56-17.16 964.77-15.99 965.98-14.82 966.68-13.22 967.39-11.62 967.39-9.55ZM955.87-26.12L955.87-26.12Q955.87-29.1 954.29-30.47 952.72-31.84 949.81-31.84L949.81-31.84 944.71-31.84 944.71-20.43 948.98-20.43Q950.3-20.43 951.55-20.76 952.79-21.09 953.76-21.79 954.72-22.49 955.3-23.56 955.87-24.63 955.87-26.12ZM957.58-10.16L957.58-10.16Q957.58-11.6 957.21-12.85 956.85-14.11 956.09-15.03 955.33-15.94 954.2-16.47 953.06-16.99 951.52-16.99L951.52-16.99 944.71-16.99 944.71-3.42 950.67-3.42Q952.16-3.42 953.43-3.91 954.7-4.39 955.63-5.27 956.55-6.15 957.07-7.4 957.58-8.64 957.58-10.16ZM991.73-28.2L997.44-28.2 987.19-3.39Q985.43 0.85 983.27 5.02 981.11 9.18 978.6 13.01L978.6 13.01 975.37 11.06Q975.98 9.96 976.81 8.52 977.64 7.08 978.45 5.54 979.26 4 979.94 2.5 980.62 1 980.99-0.24L980.99-0.24 968.66-28.2 976.91-28.2 985.29-9.13 991.73-28.2ZM1025.27-13.13L1025.27 0 1015.58 0 1015.58-35.16 1034.57-35.16Q1037.04-35.16 1039.3-34.5 1041.56-33.84 1043.29-32.51 1045.02-31.18 1046.06-29.16 1047.1-27.15 1047.1-24.44L1047.1-24.44Q1047.1-22.73 1046.61-21.23 1046.12-19.73 1045.25-18.48 1044.39-17.24 1043.22-16.24 1042.04-15.23 1040.65-14.55 1039.26-13.87 1037.71-13.5 1036.16-13.13 1034.57-13.13L1034.57-13.13 1025.27-13.13ZM1037.28-24.44L1037.28-24.44Q1037.28-27.83 1035.56-29.77 1033.84-31.71 1030.37-31.71L1030.37-31.71 1025.27-31.71 1025.27-16.46 1030.37-16.46Q1032.23-16.46 1033.54-17.05 1034.84-17.65 1035.67-18.73 1036.5-19.8 1036.89-21.25 1037.28-22.71 1037.28-24.44ZM1060.01-35.01L1060.01-35.01Q1060.01-34.08 1059.66-33.25 1059.3-32.42 1058.69-31.81 1058.08-31.2 1057.25-30.85 1056.42-30.49 1055.49-30.49L1055.49-30.49Q1054.57-30.49 1053.75-30.85 1052.93-31.2 1052.32-31.81 1051.71-32.42 1051.36-33.25 1051-34.08 1051-35.01L1051-35.01Q1051-35.94 1051.36-36.76 1051.71-37.57 1052.32-38.18 1052.93-38.79 1053.75-39.15 1054.57-39.5 1055.49-39.5L1055.49-39.5Q1056.42-39.5 1057.25-39.15 1058.08-38.79 1058.69-38.18 1059.3-37.57 1059.66-36.76 1060.01-35.94 1060.01-35.01ZM1059.64-28.17L1059.64 0 1051.37 0 1051.37-28.17 1059.64-28.17ZM1080.64-15.55L1091.48 0 1083.23 0 1076.32-9.89 1069.26 0 1063.55 0 1074.17-12.99 1063.55-28.2 1071.8-28.2 1078.49-18.63 1085.76-28.2 1091.48-28.2 1080.64-15.55ZM1100.9-13.38L1100.9-13.38Q1102.41-13.04 1103.93-12.84 1105.44-12.65 1106.98-12.65L1106.98-12.65Q1108.59-12.65 1109.97-12.95 1111.35-13.26 1112.36-13.98 1113.37-14.7 1113.96-15.89 1114.55-17.09 1114.55-18.87L1114.55-18.87Q1114.55-20.31 1114.16-21.51 1113.76-22.71 1113-23.56 1112.23-24.41 1111.1-24.89 1109.98-25.37 1108.49-25.37L1108.49-25.37Q1107.1-25.37 1105.99-24.85 1104.88-24.34 1104.04-23.47 1103.19-22.61 1102.6-21.46 1102-20.31 1101.61-19.07 1101.22-17.82 1101.04-16.55 1100.87-15.28 1100.87-14.16L1100.87-14.16Q1100.87-13.96 1100.87-13.77 1100.87-13.57 1100.9-13.38ZM1121.24-18.95L1121.24-18.95Q1121.24-17.21 1120.67-15.86 1120.11-14.5 1119.15-13.48 1118.18-12.45 1116.91-11.74 1115.64-11.04 1114.2-10.58 1112.76-10.13 1111.24-9.94 1109.71-9.74 1108.27-9.74L1108.27-9.74Q1106.44-9.74 1104.66-10 1102.88-10.25 1101.14-10.82L1101.14-10.82Q1101.41-9.2 1102-7.75 1102.58-6.3 1103.56-5.21 1104.54-4.13 1105.96-3.49 1107.39-2.86 1109.35-2.86L1109.35-2.86Q1110.64-2.86 1111.81-3.25 1112.98-3.64 1113.96-4.35 1114.94-5.05 1115.68-6.03 1116.43-7.01 1116.89-8.2L1116.89-8.2 1120.45-6.88Q1119.65-4.96 1118.24-3.55 1116.84-2.15 1115.07-1.23 1113.3-0.32 1111.31 0.12 1109.32 0.56 1107.37 0.56L1107.37 0.56Q1104.15 0.56 1101.41-0.52 1098.68-1.61 1096.7-3.56 1094.72-5.52 1093.6-8.23 1092.48-10.94 1092.48-14.16L1092.48-14.16Q1092.48-17.38 1093.6-20.09 1094.72-22.8 1096.7-24.76 1098.68-26.71 1101.41-27.8 1104.15-28.88 1107.37-28.88L1107.37-28.88Q1108.93-28.88 1110.57-28.66 1112.2-28.44 1113.74-27.97 1115.28-27.49 1116.65-26.73 1118.01-25.98 1119.03-24.87 1120.04-23.75 1120.64-22.29 1121.24-20.83 1121.24-18.95ZM1134.64-32.62L1134.64 0 1126.38 0 1126.38-41.19 1129.56-41.19 1134.64-32.62Z" opacity="1" transform="matrix(1,0,0,1,0,0)" fill="#e73d38" class="slogan-text-1" data-fill-palette-color="secondary" id="text-1"></path></svg></g></svg></g></svg></g></svg></g></svg></g></svg></g></svg></g><g><path d="M245.816 0c68.262 0 123.6 55.338 123.6 123.6 0 68.262-55.338 123.6-123.6 123.6-42.548 0-80.074-21.498-102.309-54.225h4.74c21.701 30.466 57.315 50.334 97.569 50.334 66.114 0 119.709-53.596 119.709-119.709 0-66.114-53.596-119.709-119.709-119.709-40.254 0-75.868 19.869-97.569 50.334l-4.74 0c22.235-32.727 59.761-54.225 102.309-54.225z" fill="#e73d38" stroke="transparent" data-fill-palette-color="tertiary"></path></g></svg></g><defs></defs></svg><rect width="395.52" height="247.2" fill="none" stroke="none" visibility="hidden"></rect></g></svg></g></svg>